<svg width="22" height="22" viewBox="0 0 22 22" fill="none" xmlns="http://www.w3.org/2000/svg">
<path fill-rule="evenodd" clip-rule="evenodd" d="M6.26471 9.79952L7.26469 10.806L10.7353 7.31283L9.7353 6.30634L6.26471 9.79952Z" fill="white"/>
<path fill-rule="evenodd" clip-rule="evenodd" d="M0 11.0724L3.5 14.5952L5.7353 12.3454L4.73528 11.3388L3.49998 12.5822L1.99998 11.0724L3.49998 9.56264L7.23528 13.3222L8.23526 12.3158L3.49996 7.54965L0 11.0724Z" fill="white"/>
<path fill-rule="evenodd" clip-rule="evenodd" d="M9.76469 8.8226L8.76471 9.82909L12.2353 13.3223L13.2353 12.3158L9.76469 8.8226Z" fill="white"/>
<path fill-rule="evenodd" clip-rule="evenodd" d="M15.7353 12.3454L14.7353 11.3389L11.2647 14.832L12.2647 15.8386L15.7353 12.3454Z" fill="white"/>
<path fill-rule="evenodd" clip-rule="evenodd" d="M5 6.03987L7.23529 8.28971L8.23528 7.28323L6.99998 6.03989L8.49998 4.53013L12.2353 8.28973L13.2353 7.2832L8.5 2.51709L5 6.03987Z" fill="white"/>
<path fill-rule="evenodd" clip-rule="evenodd" d="M8.76471 14.8617L13.5 19.6278L17 16.105L14.7647 13.8551L13.7646 14.8617L14.9999 16.105L13.4999 17.6148L9.76464 13.8552L8.76471 14.8617Z" fill="white"/>
<path fill-rule="evenodd" clip-rule="evenodd" d="M13.7647 9.82909L18.5 14.5952L22 11.0724L18.5 7.54965L16.2647 9.79949L17.2647 10.806L18.5 9.56269L20 11.0725L18.5 12.5822L14.7647 8.82261L13.7647 9.82909Z" fill="white"/>
<path fill-rule="evenodd" clip-rule="evenodd" d="M5 16.105L8.5 19.6277L10.7353 17.3779L9.73528 16.3714L8.49998 17.6147L6.99998 16.1049L10.7353 12.3453L9.73525 11.3388L5 16.105Z" fill="white"/>
<path fill-rule="evenodd" clip-rule="evenodd" d="M11.2651 4.76654L12.2651 5.77303L13.5004 4.52969L15.0004 6.03946L11.2651 9.79906L12.2651 10.8055L17.0004 6.03944L13.5004 2.51666L11.2651 4.76654Z" fill="white"/>
<path d="M9.20593 1.82554L11.0197 0L12.8334 1.82554L11.0197 3.65108L9.20593 1.82554Z" fill="white"/>
<path d="M9.20593 20.1745L11.0197 18.3489L12.8334 20.1745L11.0197 22L9.20593 20.1745Z" fill="white"/>
</svg>
